<?xml version="1.0" encoding="UTF-8"?>
<svg width="200px" height="60px" viewBox="0 0 200 60" version="1.1" xmlns="http://www.w3.org/2000/svg" xmlns:xlink="http://www.w3.org/1999/xlink">
    <!-- Generator: Sketch 55.2 (78181) - https://sketchapp.com -->
    <title>Android</title>
    <desc>Created with Sketch.</desc>
    <g id="Android" stroke="none" stroke-width="1" fill="none" fill-rule="evenodd">
        <g id="app-store-badge-inner-0b7bf2bf9ed36149825e7acd6b83e107">
            <rect id="Rectangle" fill="#000000" fill-rule="nonzero" x="0" y="0" width="200" height="61"></rect>
            <g id="Download_on_the_Mac_App_Store_Badge_NL_RGB_blk_100317-Copy" transform="translate(14.000000, 11.000000)" fill="#FFFFFF">
                <g id="Group">
                    <g id="_Group_" transform="translate(0.310215, 0.618588)">
                        <g id="_Group_2">
                            <g id="_Group_3" transform="translate(-0.000000, 0.000000)">
                                <g id="ai-app" transform="translate(0.689785, 0.381412)">
                                    <path d="M17.9820758,7.55236327 L19.4566648,7.55236327 L19.4566648,6.00741762 L17.9820758,6.00741762 L17.9820758,7.55236327 Z M10.465517,7.55236327 L11.940106,7.55236327 L11.940106,6.00741762 L10.465517,6.00741762 L10.465517,7.55236327 Z M20.2298407,3.26667279 C22.7113954,5.04593549 23.9521507,7.45744114 23.9521507,10.5015413 L5.97007499,10.5015413 C5.97007499,7.4105953 7.18780295,4.99891388 9.62334674,3.26667279 L7.65595364,1.29905996 C7.28123094,0.924513037 7.28123094,0.573301135 7.65595364,0.245775822 C8.03050057,-0.0819252738 8.38158064,-0.0819252738 8.70928173,0.245775822 L10.9570028,2.49349684 C12.1747746,1.83809465 13.5094414,1.51039355 14.961003,1.51039355 C16.3657188,1.51039355 17.6768747,1.83809465 18.8946466,2.49349684 L21.1423676,0.245775822 C21.5171343,-0.0819252738 21.8681704,-0.0819252738 22.1958715,0.245775822 C22.5235726,0.573301135 22.5235726,0.924513037 22.1958715,1.29905996 L20.2298407,3.26667279 Z M27.6744608,12.0478469 C28.2828414,12.0478469 28.809835,12.2701692 29.2553098,12.7147651 C29.7009165,13.1593611 29.9232365,13.6863547 29.9222292,14.29579 L29.9222292,24.761307 C29.9222292,25.4165334 29.6999058,25.9550408 29.2553098,26.3766533 C28.8107139,26.7982657 28.2838521,27.009028 27.6744608,27.009028 C27.0650695,27.009028 26.5380758,26.7982657 26.0934799,26.3766533 C25.64884,25.9550408 25.4267398,25.4165334 25.4267398,24.761307 L25.4267398,14.29579 C25.4267398,13.6872336 25.64884,13.1604158 26.0934799,12.7147651 C26.5380758,12.2691145 27.0650695,12.0470143 27.6744608,12.0478469 Z M2.24772102,12.0478469 C2.85610159,12.0478469 3.38309523,12.2701692 3.82874587,12.7147651 C4.27422072,13.1593611 4.49649672,13.6863547 4.49548941,14.29579 L4.49548941,24.761307 C4.49548941,25.4165334 4.27316603,25.9550408 3.82874587,26.3766533 C3.38414992,26.7982657 2.85715628,27.009028 2.24772102,27.009028 C1.6383297,27.009028 1.11133606,26.7982657 0.666915894,26.3766533 C0.222319947,25.9550408 5.68434189e-14,25.4165334 5.68434189e-14,24.761307 L5.68434189e-14,14.29579 C5.68434189e-14,13.6872336 0.222319947,13.1604158 0.666915894,12.7147651 C1.11133606,12.2691145 1.6383297,12.0470143 2.24772102,12.0478469 Z M5.97007499,27.009028 L5.97007499,12.0478493 L23.9521507,12.0478493 L23.9521507,27.009028 C23.9521507,27.4306405 23.8117451,27.7816766 23.5310656,28.0625319 C23.2503861,28.3432114 22.8991742,28.4836171 22.4775617,28.4836171 L20.9326161,28.4836171 L20.9326161,33.752279 C20.9326161,34.4076812 20.7102961,34.9461885 20.2657002,35.3676252 C19.82128,35.7891938 19.2942864,36 18.6848951,36 C18.0754598,36 17.5484662,35.7891938 17.1038702,35.3676252 C16.6594501,34.9461885 16.4371301,34.4076812 16.4371301,33.752279 L16.4371301,28.4836171 L13.4866337,28.4836171 L13.4866337,33.752279 C13.4866337,34.4076812 13.2643138,34.9461885 12.8197178,35.3676252 C12.3751219,35.7891938 11.8480843,36 11.2388688,36 C10.6294774,36 10.1024838,35.7891938 9.65788785,35.3676252 C9.21324796,34.9461885 8.99097196,34.4076812 8.99097196,33.752279 L8.99097196,28.4836171 L7.44602631,28.4836171 C7.02458961,28.4836171 6.67333376,28.3432114 6.39269822,28.0625319 C6.11184296,27.7816766 5.97161308,27.4306405 5.97161308,27.009028 L5.97007499,27.009028 Z" id="Fill-1"></path>
                                </g>
                            </g>
                        </g>
                    </g>
                </g>
            </g>
        </g>
        <text font-family="PingFangSC-Semibold, PingFang SC" font-size="28" font-weight="500" fill="#FFFFFF">
            <tspan x="65" y="49">Android</tspan>
        </text>
        <text id="Tap-to-download" font-family="PingFangSC-Semibold, PingFang SC" font-size="14" font-weight="500" fill="#FFFFFF">
            <tspan x="65" y="22">Tap to download</tspan>
        </text>
    </g>
</svg>