<?xml version="1.0" encoding="UTF-8"?>
<svg width="200px" height="60px" viewBox="0 0 200 60" version="1.1" xmlns="http://www.w3.org/2000/svg" xmlns:xlink="http://www.w3.org/1999/xlink">
    <!-- Generator: Sketch 51.2 (57519) - http://www.bohemiancoding.com/sketch -->
    <title>AppStore</title>
    <desc>Created with Sketch.</desc>
    <defs></defs>
    <g id="AppStore" stroke="none" stroke-width="1" fill="none" fill-rule="evenodd">
        <g id="app-store-badge-inner-0b7bf2bf9ed36149825e7acd6b83e107" fill-rule="nonzero">
            <rect id="Rectangle" fill="#000000" x="0" y="0" width="200" height="61"></rect>
            <g id="Download_on_the_Mac_App_Store_Badge_NL_RGB_blk_100317-Copy" transform="translate(14.000000, 10.000000)" fill="#FFFFFF">
                <g id="Group" transform="translate(0.000000, 2.000000)">
                    <g id="_Group_" transform="translate(0.310215, 0.618588)">
                        <g id="_Group_2">
                            <g id="_Group_3">
                                <g id="_Group_4">
                                    <path d="M24.2767544,18.6047141 C24.3116875,15.9119031 25.7331524,13.424565 28.0431366,12.0141426 C26.5792517,9.93778194 24.2152409,8.66852097 21.6642479,8.58925374 C18.9803954,8.30947596 16.3785173,10.184222 15.0108751,10.184222 C13.6167658,10.184222 11.5110658,8.61703152 9.24357443,8.66336485 C6.2601471,8.7590925 3.54620886,10.4028815 2.09471078,12.9933172 C-0.996313046,18.3082696 1.30931263,26.1194601 4.27025454,30.4156664 C5.75167646,32.5193966 7.48303338,34.8693172 9.74847895,34.7859839 C11.9653536,34.6946664 12.7933132,33.3820474 15.4692704,33.3820474 C18.1203907,33.3820474 18.8971903,34.7859839 21.2086016,34.7329998 C23.5874114,34.6946506 25.0861743,32.6199204 26.515621,30.4962696 C27.5800202,28.997285 28.3990737,27.3405806 28.9424423,25.5875236 C26.1171388,24.4007478 24.280052,21.6513082 24.2767544,18.6047141 Z" id="_Path_"></path>
                                    <path d="M19.910915,5.76377755 C21.2079409,4.21741549 21.8469363,2.22982906 21.6922014,0.223110881 C19.7106343,0.429810067 17.8802214,1.37038021 16.5656729,2.85741247 C15.2676166,4.32456965 14.6100243,6.24400402 14.7377334,8.19295215 C16.745871,8.2134867 18.6525552,7.31816361 19.910915,5.76377755 Z" id="_Path_2"></path>
                                </g>
                            </g>
                            <g id="Group" transform="translate(50.000000, 14.000000)">
                                <path d="M12.9384896,15.1745077 L5.3733127,15.1745077 L3.5565451,20.5022061 L0.352237,20.5022061 L7.5178503,0.791095008 L10.847014,0.791095008 L18.0126274,20.5022061 L14.753627,20.5022061 L12.9384896,15.1745077 Z M6.1568409,12.7160474 L12.153491,12.7160474 L9.1973439,4.06958707 L9.1146182,4.06958707 L6.1568409,12.7160474 Z" id="Shape"></path>
                                <path d="M33.4879165,13.3174918 C33.4879165,17.7833331 31.0811693,20.6525553 27.4492003,20.6525553 C25.5718672,20.7500865 23.8035221,19.7735247 22.8963651,18.1382696 L22.8276402,18.1382696 L22.8276402,25.2563331 L19.8574923,25.2563331 L19.8574923,6.13122199 L22.7324801,6.13122199 L22.7324801,8.52147596 L22.7871085,8.52147596 C23.7345643,6.89647007 25.504818,5.92032773 27.394572,5.98085691 C31.0671206,5.98087279 33.4879165,8.86404739 33.4879165,13.3174918 Z M30.434995,13.3174918 C30.434995,10.407968 28.9210167,8.49512675 26.6110438,8.49512675 C24.3416505,8.49512675 22.8151898,10.4482537 22.8151898,13.3174918 C22.8151898,16.2130791 24.3416505,18.1522537 26.6110438,18.1522537 C28.9210327,18.1522537 30.434995,16.2533807 30.434995,13.3174918 Z" id="Shape"></path>
                                <path d="M49.414265,13.3174918 C49.414265,17.7833331 47.007518,20.6525553 43.375549,20.6525553 C41.4982157,20.7500865 39.7298706,19.7735247 38.8227136,18.1382696 L38.7539886,18.1382696 L38.7539886,25.2563331 L35.7837928,25.2563331 L35.7837928,6.13122199 L38.6587806,6.13122199 L38.6587806,8.52147596 L38.7134089,8.52147596 C39.6608674,6.89647265 41.4311193,5.92033126 43.320872,5.98085691 C46.993469,5.98087279 49.414265,8.86404739 49.414265,13.3174918 Z M46.361343,13.3174918 C46.361343,10.407968 44.847365,8.49512675 42.5373922,8.49512675 C40.2679989,8.49512675 38.7415382,10.4482537 38.7415382,13.3174918 C38.7415382,16.2130791 40.2679989,18.1522537 42.5373922,18.1522537 C44.847381,18.1522537 46.361359,16.2533807 46.361359,13.3174918 L46.361343,13.3174918 Z" id="Shape"></path>
                                <path d="M59.940272,15.0101902 C60.160351,16.9648728 62.072343,18.2482855 64.685089,18.2482855 C67.188611,18.2482855 68.989764,16.9648093 68.989764,15.2023331 C68.989764,13.6723807 67.903446,12.7563014 65.331264,12.1284918 L62.759081,11.513095 C59.11463,10.638841 57.422718,8.94612675 57.422718,6.19934898 C57.422718,2.79842834 60.406962,0.462428341 64.64451,0.462428341 C68.838329,0.462428341 71.713349,2.79842834 71.810123,6.19934898 L68.811798,6.19934898 C68.632314,4.23226961 66.99503,3.04490453 64.602332,3.04490453 C62.209633,3.04490453 60.572349,4.24623787 60.572349,5.9947458 C60.572349,7.38828548 61.618103,8.20828548 64.176237,8.83601564 L66.362905,9.36925374 C70.435017,10.3256664 72.126929,11.9502061 72.126929,14.833349 C72.126929,18.5210315 69.169216,20.8306823 64.464978,20.8306823 C60.063529,20.8306823 57.091783,18.5752855 56.899801,15.0100474 L59.940272,15.0101902 Z" id="Path"></path>
                                <path d="M78.537143,2.73030136 L78.537143,6.13122199 L81.288826,6.13122199 L81.288826,8.46722199 L78.537143,8.46722199 L78.537143,16.3897775 C78.537143,17.6205553 79.08811,18.194095 80.297716,18.194095 C80.624386,18.1884378 80.950527,18.1656547 81.274777,18.125841 L81.274777,20.4478887 C80.730937,20.5488086 80.178168,20.5945148 79.625011,20.5843014 C76.695411,20.5843014 75.552899,19.491476 75.552899,16.7043966 L75.552899,8.46722199 L73.448941,8.46722199 L73.448941,6.13122199 L75.552899,6.13122199 L75.552899,2.73030136 L78.537143,2.73030136 Z" id="Path"></path>
                                <path d="M82.880815,13.3174918 C82.880815,8.79585691 85.562254,5.95452358 89.743639,5.95452358 C93.939057,5.95452358 96.608014,8.79579342 96.608014,13.3174918 C96.608014,17.8515395 93.953105,20.6804601 89.743639,20.6804601 C85.535755,20.6804601 82.880815,17.8515236 82.880815,13.3174918 Z M93.581623,13.3174918 C93.581623,10.2157458 92.15037,8.38507914 89.743623,8.38507914 C87.336876,8.38507914 85.905623,10.2296982 85.905623,13.3174918 C85.905623,16.4316347 87.336876,18.2483648 89.743623,18.2483648 C92.15037,18.2483648 93.581655,16.4316347 93.581655,13.3174918 L93.581623,13.3174918 Z" id="Shape"></path>
                                <path d="M99.058489,6.13122199 L101.891331,6.13122199 L101.891331,8.57725374 L101.960056,8.57725374 C102.355106,7.00263216 103.80785,5.91892288 105.440622,5.98084104 C105.782911,5.9796541 106.124255,6.01657238 106.458263,6.09090453 L106.458263,8.85007914 C106.026144,8.71894322 105.57537,8.65873368 105.12372,8.67182517 C104.250514,8.6366481 103.405446,8.9822681 102.810404,9.61793614 C102.215363,10.2536042 101.929796,11.1158133 102.028685,11.9781744 L102.028685,20.5021744 L99.058489,20.5021744 L99.058489,6.13122199 Z" id="Path"></path>
                                <path d="M120.151067,16.2812696 C119.751503,18.8900791 117.193353,20.6804442 113.920368,20.6804442 C109.710902,20.6804442 107.09814,17.8794125 107.09814,13.3856823 C107.09814,8.87799977 109.724951,5.95450771 113.795512,5.95450771 C117.798948,5.95450771 120.316518,8.68577755 120.316518,13.0431109 L120.316518,14.0537775 L110.096433,14.0537775 L110.096433,14.2320315 C110.001013,15.301923 110.372997,16.3609671 111.117765,17.1397774 C111.862533,17.9185877 112.908301,18.3421002 113.989061,18.3025871 C115.430434,18.4367134 116.789367,17.6147104 117.330723,16.2812537 L120.151067,16.2812696 Z M110.110453,11.9921585 L117.344756,11.9921426 C117.398658,11.0307736 117.046292,10.0906555 116.372554,9.39828794 C115.698815,8.70592042 114.764791,8.32407979 113.795512,8.34476167 C112.818569,8.33897581 111.879773,8.72099737 111.187788,9.40591535 C110.495803,10.0908333 110.107966,11.0218961 110.110453,11.9921585 Z" id="Shape"></path>
                            </g>
                        </g>
                    </g>
                </g>
                <g id="_Group_5" transform="translate(51.555556, 0.920635)">
                    <g id="Group" transform="translate(0.000000, 0.000000)">
                        <path d="M0.22556648,1.654328 L3.43246545,1.654328 C6.20360745,1.654328 7.55173058,3.31565146 7.55173058,6.28424583 C7.55173058,9.2664576 6.18999004,10.9482072 3.43246545,10.9482072 L0.22556648,10.9482072 L0.22556648,1.654328 Z M1.77114199,3.00925984 L1.77114199,9.5932753 L3.26224788,9.5932753 C5.10059761,9.5932753 5.96530285,8.5038829 5.96530285,6.31148064 C5.96530285,4.11226967 5.09378891,3.00925984 3.26224788,3.00925984 L1.77114199,3.00925984 Z M12.2905876,3.62204308 C14.1697896,3.62204308 15.4838692,4.85441826 15.4838692,6.88341167 L15.4838692,7.78216042 C15.4838692,9.8860496 14.1697896,11.0707638 12.2905876,11.0707638 C10.3841509,11.0707638 9.0836887,9.899667 9.0836887,7.78216042 L9.0836887,6.89022037 C9.0836887,4.90888789 10.404577,3.62204308 12.2905876,3.62204308 Z M12.2973964,4.88846178 C11.2216213,4.88846178 10.6088381,5.78040183 10.6088381,6.95149869 L10.6088381,7.7413082 C10.6088381,8.9124051 11.1807691,9.8043451 12.2973964,9.8043451 C13.4004062,9.8043451 13.9655285,8.9192138 13.9655285,7.7413082 L13.9655285,6.95149869 C13.9655285,5.78040183 13.3731714,4.88846178 12.2973964,4.88846178 Z M26.6160981,3.74459973 L24.7232788,10.9482072 L23.184512,10.9482072 L21.6797887,5.68507999 L21.6389364,5.68507999 L20.161448,10.9482072 L18.6158724,10.9482072 L16.6413487,3.74459973 L18.2686286,3.74459973 L19.4261081,9.1847532 L19.4941951,9.1847532 L20.9444488,3.74459973 L22.3674676,3.74459973 L23.8585735,9.1847532 L23.9266605,9.1847532 L25.1045661,3.74459973 L26.6160981,3.74459973 Z M28.107204,10.9482072 L28.107204,3.74459973 L29.5915012,3.74459973 L29.5915012,5.03144453 L29.6663969,5.03144453 C29.8502319,4.46632221 30.374502,3.63566048 31.8315644,3.63566048 C33.281818,3.63566048 34.2554625,4.4390874 34.2554625,6.09360215 L34.2554625,10.9482072 L32.7439305,10.9482072 L32.7439305,6.54978523 C32.7439305,5.4603928 32.1719995,4.97697491 31.3209117,4.97697491 C30.2042844,4.97697491 29.618736,5.80763664 29.618736,6.95149869 L29.618736,10.9482072 L28.107204,10.9482072 Z M36.5431866,10.9482072 L36.5431866,1.16410141 L38.0547186,1.16410141 L38.0547186,10.9482072 L36.5431866,10.9482072 Z M43.2497588,3.62204308 C45.1289607,3.62204308 46.4430403,4.85441826 46.4430403,6.88341167 L46.4430403,7.78216042 C46.4430403,9.8860496 45.1289607,11.0707638 43.2497588,11.0707638 C41.343322,11.0707638 40.0428598,9.899667 40.0428598,7.78216042 L40.0428598,6.89022037 C40.0428598,4.90888789 41.3637481,3.62204308 43.2497588,3.62204308 Z M43.2565675,4.88846178 C42.1807925,4.88846178 41.5680092,5.78040183 41.5680092,6.95149869 L41.5680092,7.7413082 C41.5680092,8.9124051 42.1399402,9.8043451 43.2565675,9.8043451 C44.3595773,9.8043451 44.9246996,8.9192138 44.9246996,7.7413082 L44.9246996,6.95149869 C44.9246996,5.78040183 44.3323425,4.88846178 43.2565675,4.88846178 Z M50.3512357,11.0571464 C48.9554516,11.0571464 47.9954246,10.2060586 47.9954246,8.8579354 C47.9954246,7.57789934 48.8805559,6.7200028 50.5418794,6.7200028 L52.359803,6.7200028 L52.359803,6.05274994 C52.359803,5.25613172 51.8355329,4.88165308 51.0048711,4.88165308 C50.1878268,4.88165308 49.8201569,5.21527951 49.7044089,5.67827129 L48.2677727,5.67827129 C48.3562858,4.48674832 49.2618433,3.63566048 51.0525321,3.63566048 C52.5912989,3.63566048 53.8645263,4.27567854 53.8645263,6.07998475 L53.8645263,10.9482072 L52.42789,10.9482072 L52.42789,10.0222236 L52.359803,10.0222236 C52.0397939,10.5669198 51.4133933,11.0571464 50.3512357,11.0571464 Z M50.8210362,9.8451973 C51.6789327,9.8451973 52.359803,9.280075 52.359803,8.5175003 L52.359803,7.75492561 L50.780184,7.75492561 C49.9018613,7.75492561 49.5137653,8.1838739 49.5137653,8.7694223 C49.5137653,9.4979535 50.1401659,9.8451973 50.8210362,9.8451973 Z M58.5148702,3.64927789 C59.5293669,3.64927789 60.305559,4.09865227 60.5847158,4.82718345 L60.6596116,4.82718345 L60.6596116,1.16410141 L62.1711436,1.16410141 L62.1711436,10.9482072 L60.7004638,10.9482072 L60.7004638,9.7975364 L60.625568,9.7975364 C60.4076896,10.5260676 59.5429843,11.043529 58.4944441,11.043529 C56.8399293,11.043529 55.7641543,9.8588147 55.7641543,7.93876058 L55.7641543,6.74723761 C55.7641543,4.82718345 56.8603555,3.64927789 58.5148702,3.64927789 Z M58.9370098,4.9429314 C57.9293218,4.9429314 57.3029211,5.67827129 57.3029211,6.9583074 L57.3029211,7.7208821 C57.3029211,9.0213443 57.9361305,9.7498755 58.9710533,9.7498755 C59.9923587,9.7498755 60.6596116,9.028153 60.6596116,7.81620393 L60.6596116,6.76766372 C60.6596116,5.66465388 59.9310804,4.9429314 58.9370098,4.9429314 Z M67.7542798,10.9482072 L67.7542798,3.74459973 L69.2590031,3.74459973 L69.2590031,10.9482072 L67.7542798,10.9482072 Z M67.5091665,1.58624097 C67.5091665,1.02792735 67.9244973,0.64664 68.4964283,0.64664 C69.0955942,0.64664 69.510925,1.02792735 69.510925,1.58624097 C69.510925,2.13774589 69.0955942,2.51903324 68.4964283,2.51903324 C67.9244973,2.51903324 67.5091665,2.13774589 67.5091665,1.58624097 Z M71.6897099,10.9482072 L71.6897099,3.74459973 L73.1740071,3.74459973 L73.1740071,5.03144453 L73.2489028,5.03144453 C73.4327378,4.46632221 73.9570079,3.63566048 75.4140703,3.63566048 C76.864324,3.63566048 77.8379684,4.4390874 77.8379684,6.09360215 L77.8379684,10.9482072 L76.3264364,10.9482072 L76.3264364,6.54978523 C76.3264364,5.4603928 75.7545054,4.97697491 74.9034176,4.97697491 C73.7867903,4.97697491 73.2012419,5.80763664 73.2012419,6.95149869 L73.2012419,10.9482072 L71.6897099,10.9482072 Z M83.6798353,3.79906935 L83.6798353,2.00157184 L85.1573238,2.00157184 L85.1573238,3.79906935 L86.7709864,3.79906935 L86.7709864,5.03144453 L85.1573238,5.03144453 L85.1573238,8.7694223 C85.1573238,9.531997 85.450098,9.7498755 86.2603337,9.7498755 C86.4645947,9.7498755 86.7369429,9.7362581 86.8526908,9.7226407 L86.8526908,10.9277811 C86.7301342,10.9550159 86.2262902,10.9958681 85.885855,10.9958681 C84.1360184,10.9958681 83.6594092,10.3694674 83.6594092,8.9192138 L83.6594092,5.03144453 L82.5632081,5.03144453 L82.5632081,3.79906935 L83.6798353,3.79906935 Z M88.6774231,10.9482072 L88.6774231,1.16410141 L90.1821464,1.16410141 L90.1821464,5.03144453 L90.2570421,5.03144453 C90.4136423,4.52079183 90.9991907,3.63566048 92.4426357,3.63566048 C93.8452285,3.63566048 94.8461078,4.45270481 94.8461078,6.10041086 L94.8461078,10.9482072 L93.3413845,10.9482072 L93.3413845,6.55659394 C93.3413845,5.47401021 92.7354099,4.97697491 91.8775134,4.97697491 C90.7949297,4.97697491 90.1821464,5.80082794 90.1821464,6.95149869 L90.1821464,10.9482072 L88.6774231,10.9482072 Z M99.918591,11.0707638 C97.9576849,11.0707638 96.7389271,9.8724321 96.7389271,7.81620393 L96.7389271,6.87660296 C96.7389271,4.80675735 98.0734328,3.62204308 99.830078,3.62204308 C101.634384,3.62204308 102.907612,4.87484437 102.907612,6.87660296 L102.907612,7.71407339 L98.2368417,7.71407339 L98.2368417,8.0681259 C98.2368417,9.0758139 98.8496249,9.8179625 99.911783,9.8179625 C100.701592,9.8179625 101.246288,9.4434839 101.348419,8.9941095 L102.825907,8.9941095 C102.737394,9.8451973 101.859072,11.0707638 99.918591,11.0707638 Z M98.2368417,6.69957669 L101.430123,6.69957669 L101.430123,6.61106356 C101.430123,5.55571464 100.796914,4.85441826 99.836887,4.85441826 C98.8768597,4.85441826 98.2368417,5.55571464 98.2368417,6.61106356 L98.2368417,6.69957669 Z" id="Downloadinthe"></path>
                    </g>
                </g>
            </g>
        </g>
    </g>
</svg>