<?xml version="1.0" encoding="UTF-8"?>
<svg width="184px" height="28px" viewBox="0 0 184 28" version="1.1" xmlns="http://www.w3.org/2000/svg" xmlns:xlink="http://www.w3.org/1999/xlink">
    <!-- Generator: Sketch 51.2 (57519) - http://www.bohemiancoding.com/sketch -->
    <title>stars</title>
    <desc>Created with Sketch.</desc>
    <defs></defs>
    <g id="stars" stroke="none" stroke-width="1" fill="none" fill-rule="evenodd">
        <polygon id="Star" fill="#F76C19" points="14.5 22.5 5.97711384 27.1352549 7.60484026 17.3176275 0.709680514 10.3647451 10.2385569 8.93237254 14.5 0 18.7614431 8.93237254 28.2903195 10.3647451 21.3951597 17.3176275 23.0228862 27.1352549"></polygon>
        <polygon id="Star-Copy" fill="#F76C19" points="53.5 22.5 44.9771138 27.1352549 46.6048403 17.3176275 39.7096805 10.3647451 49.2385569 8.93237254 53.5 0 57.7614431 8.93237254 67.2903195 10.3647451 60.3951597 17.3176275 62.0228862 27.1352549"></polygon>
        <polygon id="Star-Copy-3" fill="#F76C19" points="91.5 22.5 82.9771138 27.1352549 84.6048403 17.3176275 77.7096805 10.3647451 87.2385569 8.93237254 91.5 0 95.7614431 8.93237254 105.290319 10.3647451 98.3951597 17.3176275 100.022886 27.1352549"></polygon>
        <polygon id="Star-Copy-2" fill="#F76C19" points="130.5 22.5 121.977114 27.1352549 123.60484 17.3176275 116.709681 10.3647451 126.238557 8.93237254 130.5 0 134.761443 8.93237254 144.290319 10.3647451 137.39516 17.3176275 139.022886 27.1352549"></polygon>
        <polygon id="Star-Copy-4" fill="#F76C19" points="169.5 22.5 160.977114 27.1352549 162.60484 17.3176275 155.709681 10.3647451 165.238557 8.93237254 169.5 0 173.761443 8.93237254 183.290319 10.3647451 176.39516 17.3176275 178.022886 27.1352549"></polygon>
    </g>
</svg>